<svg width="20" height="20" viewBox="0 0 20 20" fill="none" xmlns="http://www.w3.org/2000/svg">
    <path d="M4.948 18.333h10.937c.431 0 .781-.35.781-.781V6.615c0-.01-.004-.017-.004-.025-.001-.012-.004-.022-.007-.034a.253.253 0 0 0-.047-.1c-.003-.004-.003-.01-.007-.014l-4.166-4.688c-.002-.001-.004-.001-.005-.003a.258.258 0 0 0-.117-.07l-.029-.006c-.015-.002-.029-.008-.045-.008H4.948c-.431 0-.782.35-.782.78v15.105c0 .43.351.781.782.781zM12.5 2.612l3.326 3.742H12.76c-.114 0-.26-.219-.26-.39V2.611zm-7.813-.164a.26.26 0 0 1 .26-.26h7.032v3.775c0 .422.341.912.781.912h3.386v10.677a.26.26 0 0 1-.26.26H4.947a.258.258 0 0 1-.26-.26V2.448z" fill="#223354"/>
    <path d="M7.03 8.958h6.772a.26.26 0 0 0 0-.52H7.03a.26.26 0 0 0 0 .52zm0 2.084h6.772a.26.26 0 1 0 0-.521H7.03a.26.26 0 1 0 0 .52zm0-4.167h3.126a.26.26 0 0 0 0-.52H7.03a.26.26 0 1 0 0 .52zm0 6.25h6.772a.26.26 0 0 0 0-.52H7.03a.26.26 0 0 0 0 .52zm0 2.083h6.772a.26.26 0 1 0 0-.52H7.03a.26.26 0 1 0 0 .52z" fill="#223354"/>
</svg>
