<svg width="295" height="220" viewBox="0 0 295 220" fill="none" xmlns="http://www.w3.org/2000/svg">
    <path d="M295 193.336H0v.148h295v-.148zM50.492 198.957h-19.54v.148h19.54v-.148zM133.67 197.357h-32.697v.148h32.697v-.148zM65.012 202.464H53.69v.148h11.322v-.148zM252.903 198.88h-25.482v.148h25.482v-.148zM261.895 198.88h-3.735v.148h3.735v-.148zM191.189 200.953h-27.635v.147h27.635v-.147zM139.836 167.003H25.913a3.372 3.372 0 0 1-3.37-3.371V3.372c0-1.86 1.511-3.372 3.37-3.372h113.929a3.373 3.373 0 0 1 3.369 3.371v160.261a3.382 3.382 0 0 1-3.375 3.371zM25.913.148A3.227 3.227 0 0 0 22.69 3.37v160.261a3.226 3.226 0 0 0 3.222 3.223h113.929a3.226 3.226 0 0 0 3.221-3.223V3.372a3.226 3.226 0 0 0-3.221-3.224H25.912zM267.453 167.003H153.524a3.372 3.372 0 0 1-3.369-3.371V3.372c0-1.86 1.51-3.372 3.369-3.372h113.929a3.373 3.373 0 0 1 3.369 3.371v160.261a3.373 3.373 0 0 1-3.369 3.371zM153.524.148a3.227 3.227 0 0 0-3.222 3.223v160.261a3.227 3.227 0 0 0 3.222 3.223h113.929a3.226 3.226 0 0 0 3.221-3.223V3.372a3.226 3.226 0 0 0-3.221-3.224H153.524z" fill="#EBEBEB"/>
    <path d="M175.726 11.478H61.82v81.828h113.906V11.478z" fill="#FAFAFA"/>
    <path d="m169.241 93.306-28.969-81.828h-21.741L147.5 93.306h21.741zM110.778 93.306 81.809 11.478h-7.93l28.97 81.828h7.929z" fill="#fff"/>
    <path d="M56.392 8.667H181.16c.278 0 .508.23.508.508s-.23.508-.508.508H56.392a.508.508 0 0 1 0-1.016z" fill="#E0E0E0"/>
    <path d="M119.451 11.3H118.1v82.183h1.351V11.3z" fill="#1AB4D7"/>
    <path d="M118.094 11.3h-.672v82.183h.672V11.3z" fill="#E0E0E0"/>
    <path d="M61.032 51.715v1.352h115.481v-1.352H61.033z" fill="#1AB4D7"/>
    <path d="M61.036 92.745V10.687H176.516V94.097H61.036v-1.352zm114.129 0V12.039H62.387v80.706h112.778z" fill="#1AB4D7"/>
    <path d="M61.03 10.693h-.673v83.404h.672V10.693z" fill="#E0E0E0"/>
    <path opacity=".5" d="M77.78 7.428v96.098H53.4l4.473-96.098H77.78zM159.093 7.428v96.098h24.379L179 7.428h-19.907z" fill="#EBEBEB"/>
    <path d="M45.831 115.039h-9.298v75.475h9.298v-75.475zM140.763 190.514H38.321v2.822h102.442v-2.822z" fill="#1AB4D7"/>
    <path d="M45.834 190.51h96.713v-75.475H45.834v75.475z" fill="#F5F5F5"/>
    <path d="M44.87 112.577h-9.505v2.462h9.505v-2.462z" fill="#1AB4D7"/>
    <path d="M44.866 115.034h98.848v-2.462H44.866v2.462z" fill="#FAFAFA"/>
    <path d="M139.205 157.509H49.177v-37.303h90.028v37.303zm-89.403-.626h88.777v-36.052H49.802v36.052zM139.205 185.342H49.177v-24.096h90.028v24.096zm-89.403-.626h88.777v-22.844H49.802v22.844z" fill="#E0E0E0"/>
    <path d="M126.248 122.52H62.133a.829.829 0 0 1-.826-.827v-.354c0-.454.372-.826.826-.826h64.121c.455 0 .826.372.826.826v.354a.834.834 0 0 1-.832.827zM126.248 163.561H62.133a.829.829 0 0 1-.826-.827v-.354c0-.455.372-.827.826-.827h64.121c.455 0 .826.372.826.827v.354a.837.837 0 0 1-.832.827z" fill="#E0E0E0"/>
    <path d="M205.234 189.709h54.092V24.554h-54.092V189.71z" fill="#1AB4D7"/>
    <path d="M205.237 24.562h-1.716v165.155h1.716V24.562z" fill="#E0E0E0"/>
    <path d="M214.014 183.41h36.538V30.855h-36.538V183.41z" fill="#FAFAFA"/>
    <path d="M147.5 220c63.179 0 114.395-2.992 114.395-6.684 0-3.691-51.216-6.683-114.395-6.683-63.179 0-114.395 2.992-114.395 6.683 0 3.692 51.216 6.684 114.395 6.684z" fill="#D9D9D9"/>
    <path d="m84.582 208.174 4.62-1.754-2.832-11.171-4.62 1.754 2.832 11.171zM49.873 208.262h4.938l.743-11.448H50.61l-.737 11.448z" fill="#B55B52"/>
    <path d="M55.306 207.689h-6.023c-.201 0-.372.142-.402.337l-.755 4.393c-.076.454.301.885.767.88 1.935-.036 3.346-.148 5.788-.148 1.505 0 6.036.153 8.113.153 2.03 0 2.242-2.054 1.386-2.237-3.847-.833-6.773-1.984-8.048-3.076a1.318 1.318 0 0 0-.825-.302zM88.966 205.895l-5.044 1.913a.429.429 0 0 0-.272.466l.643 4.458c.065.46.543.744.974.572 1.805-.72 3.345-1.635 5.646-2.462 2.69-.968 5.363-2.001 7.54-3.389 1.711-1.092.992-3.153.183-2.828-3.67 1.476-4.572 1.96-8.425 1.216-.419-.088-.85-.094-1.245.054z" fill="#263238"/>
    <path d="M75.933 57.59a353.307 353.307 0 0 0 4.844 8.325c1.652 2.758 3.345 5.474 5.145 8.03.436.65.92 1.264 1.35 1.866.184.266.26.343.384.443.13.094.431.183.897.142.46-.03 1.044-.166 1.652-.39 1.222-.449 2.531-1.18 3.812-1.996.637-.419 1.28-.85 1.917-1.31.626-.455 1.269-.963 1.847-1.406l2.773 2.468a26.113 26.113 0 0 1-1.623 2.108 26.565 26.565 0 0 1-1.787 1.954 23.11 23.11 0 0 1-2.03 1.813 17.146 17.146 0 0 1-2.378 1.618c-.879.484-1.84.939-2.997 1.222-1.145.272-2.537.378-3.988-.012-1.458-.372-2.767-1.305-3.635-2.297-.59-.684-1.168-1.328-1.71-2.007-2.19-2.686-4.125-5.467-5.96-8.296a117.239 117.239 0 0 1-5.103-8.732l6.59-3.543z" fill="#B65B52"/>
    <path d="M67.165 57.815c-1.333 4.534 8.048 16.898 8.048 16.898l9.458-6.087s-2.78-6.306-6.555-11.118c-3.87-4.936-9.487-4.67-10.95.307z" fill="#223354"/>
    <path opacity=".2" d="M67.165 57.815c-1.333 4.534 8.048 16.898 8.048 16.898l9.458-6.087s-2.78-6.306-6.555-11.118c-3.87-4.936-9.487-4.67-10.95.307z" fill="#000"/>
    <path opacity=".2" d="M72.93 63.14c1.947.833 4.809 5.521 6.295 8.993l-4.012 2.58s-3.61-4.759-6.03-9.459c1.27-1.393 2.72-2.55 3.747-2.114z" fill="#000"/>
    <path d="m97.19 72.83 1.736-4.854 4.914 2.35s-1.02 4.328-4.62 4.322l-2.03-1.819z" fill="#B55B52"/>
    <path d="m103.297 64.776 2.083 2.303-1.54 3.247-4.915-2.35 4.372-3.2z" fill="#B55B52"/>
    <path opacity=".2" d="m86.37 195.249 1.457 5.763-4.62 1.753-1.456-5.756 4.62-1.76zM50.61 196.82h4.944l-.383 5.898h-4.944l.383-5.898z" fill="#000"/>
    <path d="M45.147 55.813c5.322 18.782 4.449 38.709 4.785 42.76 3.87-.142 18.455-.692 26.408-.993C80.824 69.588 72.77 54 72.77 54s-1.692-.33-4-.566a42.897 42.897 0 0 0-2.312-.183c-.449-.03-.903-.041-1.363-.053-2.98-.047-7.853.425-11.204.838-.702.089-1.416.195-2.106.307-.644.112-1.269.224-1.865.343a71.19 71.19 0 0 0-4.773 1.127z" fill="#223354"/>
    <path opacity=".2" d="M45.147 55.813c5.322 18.782 4.449 38.709 4.785 42.76 3.87-.142 18.455-.692 26.408-.993C80.824 69.588 72.77 54 72.77 54s-1.692-.33-4-.566a42.897 42.897 0 0 0-2.312-.183c-.449-.03-.903-.041-1.363-.053-2.98-.047-7.853.425-11.204.838-.702.089-1.416.195-2.106.307-.644.112-1.269.224-1.865.343a71.19 71.19 0 0 0-4.773 1.127z" fill="#000"/>
    <path opacity=".2" d="M50.77 63.867c.471 1.818-.066 10.108-1.965 12.15-.26-2.656-.602-5.425-1.056-8.26l3.02-3.89z" fill="#000"/>
    <path d="M54.056 41.33c.973 3.555 2.171 10.108-.171 12.706 2.106 1.8 4.832 3.861 9.121 3.696 4.29-.165 3.322-3.058 2.077-4.528-4.089-.662-4.207-3.655-3.717-6.507l-7.31-5.367z" fill="#B55B52"/>
    <path d="m63.118 57.124.779.526-2.844.826.732-1.317 1.333-.035z" fill="#223354"/>
    <path d="m64.192 56.847-.295.803 2.856.826-.195-1.53-2.366-.1z" fill="#223354"/>
    <path d="m52.18 53.764 1.127-.566a1.078 1.078 0 0 1 1.126.094c1.18.88 4.32 2.946 8.685 3.826-2.26 1.08-1.699 3.968-1.699 3.968s-7.168-2.368-9.47-6.648c-.13-.242-.017-.55.23-.674zM66.34 53.02l-1.647-.248a.219.219 0 0 0-.212.343c.578.815 1.534 2.621-.29 3.731 2.26 1.081 2.957 3.714 2.957 3.714s2.938-3.17-.49-7.356a.49.49 0 0 0-.319-.184z" fill="#fff"/>
    <path opacity=".2" d="m57.035 43.52 4.331 3.171c-.118.673-.2 1.358-.195 2.014-1.551-.107-3.788-1.636-4.07-3.236-.142-.791-.166-1.565-.066-1.949z" fill="#000"/>
    <path d="M66.593 34.044c-.2 1.712-1.84 3.194-2.909 3.566l-1.327-7.474c2.98-2.102 4.513 1.493 4.236 3.908z" fill="#263238"/>
    <path d="M52.563 36.105c.861 4.83 1.115 7.705 3.858 9.919 4.125 3.33 9.871.407 10.473-4.582.543-4.493-.956-11.637-5.935-13.025-4.91-1.37-9.252 2.858-8.396 7.688z" fill="#B55B52"/>
    <path d="M53.483 39.364c2.236 1.187 3.222-1.482 3.24-2.569.029-1.724-.715-3.619-1.605-4.31 4.318-.023 12.856-.212 10.702-4.327-2.153-4.116-6.466-3.643-9.717-1.394-1.717 1.187-7.275.154-5.9 3.36-2.903 1.54-.39 7.286 3.28 9.24z" fill="#263238"/>
    <path d="M50.67 29.858s-.95.088-2.13-.726c.342 1.529 1.888 1.564 1.888 1.564l.241-.838z" fill="#263238"/>
    <path d="M50.746 40.078a4.642 4.642 0 0 0 2.696 2.327c1.558.502 1.912-.922 1.534-2.427-.342-1.352-1.073-3.194-2.66-3.04-1.564.147-2.237 1.782-1.57 3.14z" fill="#B55B52"/>
    <path d="M82.087 149.851c-2.006-14.956-5.753-52.27-5.753-52.27l-17.357.649s8.189 37.285 11.15 52.406c2.962 15.121 11.205 51.61 11.205 51.61l7.823-2.964c0 .006-4.974-33.885-7.068-49.431z" fill="#263238"/>
    <path opacity=".2" d="M65.46 108.285c-1.085.271-2.796.939-3.858 1.978a3869.25 3869.25 0 0 1 5.617 26.209c1.257-7.575 1.292-21.876-1.758-28.187z" fill="#000"/>
    <path d="M66.971 97.935s-3.682 40.479-5.369 54.868c-1.847 15.759-4.153 48.776-4.153 48.776h-9.057s-.378-29.209.802-44.631c1.34-17.565.732-58.376.732-58.376l17.045-.637z" fill="#263238"/>
    <path d="M58.646 201.773H47.991l-.224-3.188 11.894-.207-1.015 3.395zM90.205 199.093l-9.316 3.542-1.144-3.017 10.36-4.115.1 3.59z" fill="#223354"/>
    <path d="M60.098 36.612c.047.396.295.691.548.662.26-.03.431-.378.384-.774-.047-.395-.295-.69-.549-.66-.26.034-.43.377-.383.772zM64.57 36.099c.047.395.295.69.548.661.26-.03.431-.378.384-.773-.047-.396-.295-.691-.549-.662-.254.03-.43.378-.383.774z" fill="#263238"/>
    <path d="M63.171 36.459s1.163 2.185 2.284 3.17c-.626.733-1.853.573-1.853.573l-.43-3.743z" fill="#A02724"/>
    <path d="M62.056 41.454c-1.528-.03-2.348-.998-2.383-1.04a.115.115 0 0 1 .017-.165.115.115 0 0 1 .166.018c.011.012.967 1.134 2.696.933.065-.006.124.041.13.1.005.065-.042.125-.1.13a4.09 4.09 0 0 1-.526.024zM58.552 35.325a.244.244 0 0 1-.112-.03.232.232 0 0 1-.083-.318c.655-1.116 1.735-1.175 1.782-1.18a.232.232 0 0 1 .242.224.232.232 0 0 1-.224.242c-.036 0-.88.059-1.399.95a.255.255 0 0 1-.206.112zM66.322 34.334a.244.244 0 0 1-.195-.107c-.554-.874-1.398-.897-1.433-.903a.232.232 0 0 1-.23-.236c0-.13.106-.23.235-.23.048 0 1.127.023 1.823 1.115a.238.238 0 0 1-.07.325.269.269 0 0 1-.13.035z" fill="#263238"/>
    <path d="M56.983 208.557c-.455 0-.956-.094-1.304-.177a.127.127 0 0 1-.095-.094.103.103 0 0 1 .047-.118c.177-.112 1.717-1.092 2.278-.809.088.041.194.136.218.331.03.259-.041.472-.212.62-.207.183-.555.247-.932.247zm-.968-.342c.85.171 1.493.136 1.752-.089.112-.1.16-.236.136-.425-.012-.088-.047-.124-.083-.135-.289-.148-1.18.271-1.805.649z" fill="#223354"/>
    <path d="M55.708 208.38a.126.126 0 0 1-.065-.017.133.133 0 0 1-.059-.107c0-.059.047-1.488.602-1.954a.626.626 0 0 1 .49-.154c.283.036.365.207.389.308.13.549-.802 1.635-1.298 1.912a.207.207 0 0 1-.06.012zm.897-2.001a.425.425 0 0 0-.266.1c-.354.301-.472 1.134-.507 1.547.49-.384 1.08-1.204 1.003-1.529-.006-.03-.024-.101-.177-.118h-.053zM89.662 206.361a.13.13 0 0 1-.106-.059.117.117 0 0 1 .018-.136c.171-.189 1.67-1.836 2.348-1.736.13.018.23.095.29.225.1.212.1.419-.007.608-.336.644-1.728.962-2.53 1.098h-.013zm2.177-1.7c-.395.012-1.256.779-1.852 1.405 1.086-.219 1.829-.549 2.018-.909a.439.439 0 0 0 0-.402c-.024-.053-.06-.082-.112-.088-.024-.006-.036-.006-.053-.006z" fill="#223354"/>
    <path d="M89.662 206.361c-.011 0-.023 0-.035-.006a.117.117 0 0 1-.083-.082c-.017-.054-.36-1.347.042-2.055a.868.868 0 0 1 .537-.419c.312-.083.454.035.525.153.283.49-.443 1.907-.909 2.374a.097.097 0 0 1-.077.035zm.643-2.35a.638.638 0 0 0-.513.325c-.265.466-.147 1.269-.07 1.659.436-.561.89-1.63.725-1.925-.012-.012-.041-.059-.142-.059z" fill="#223354"/>
    <path d="M50.575 62.798a978.575 978.575 0 0 0-4.455 9.317c-.725 1.559-1.457 3.118-2.141 4.682l-1.027 2.344-.49 1.175-.124.295-.088.219c-.06.141-.1.283-.154.419a7.119 7.119 0 0 0-.194 3.59c.23 1.275.79 2.621 1.557 3.926.767 1.31 1.73 2.592 2.809 3.808a30.116 30.116 0 0 0 2.59 2.634c.295.277.625.567.885.797l-1.97 3.147a24.106 24.106 0 0 1-2.473-1.447 32.702 32.702 0 0 1-2.295-1.653c-1.48-1.187-2.88-2.533-4.124-4.11-1.233-1.57-2.319-3.4-2.98-5.526-.654-2.114-.82-4.558-.283-6.837.071-.283.136-.567.224-.844l.23-.732.42-1.3c.289-.855.578-1.718.896-2.562.62-1.694 1.269-3.371 1.965-5.024a122.421 122.421 0 0 1 4.555-9.742l6.667 3.424z" fill="#B65B52"/>
    <path d="M45.147 55.813c-4.508 1.411-8.938 16.71-8.938 16.71l10.43 4.57s3.375-7.393 5.317-13.185c2.106-6.312-1.352-9.807-6.809-8.095z" fill="#223354"/>
    <path opacity=".2" d="M45.147 55.813c-4.508 1.411-8.938 16.71-8.938 16.71l10.43 4.57s3.375-7.393 5.317-13.185c2.106-6.312-1.352-9.807-6.809-8.095z" fill="#000"/>
    <path d="m48.651 95.035 4.313 2.569-4.195 4.18s-3.646-2.804-2.554-5l2.436-1.749zM55.85 101.696l-4.331 3.034-2.75-2.946 4.195-4.18 2.886 4.092z" fill="#B55B52"/>
    <path d="m264.541 93.931-.206 2.844.588.043.206-2.844-.588-.043zM265.339 83.171l-.598 8.25.589.043.597-8.25-.588-.043zM249.169 175.954H104.66c-4.413 0-7.77-3.613-7.452-8.036l7.647-106.75c.318-4.416 4.189-8.035 8.602-8.035h144.515c4.413 0 7.77 3.613 7.451 8.036l-7.646 106.749c-.319 4.417-4.189 8.036-8.608 8.036z" fill="#223354"/>
    <path d="M215.556 213.316h-46.911l-8.36-58.009h46.911l8.36 58.009z" fill="#223354"/>
    <path d="M208.105 209.856h-50.74l-1.009 3.46h50.746l1.003-3.46z" fill="#223354"/>
    <path d="m209.668 183.234-45.719-2.503-3.664-25.424h45.359l4.024 27.927z" fill="#263238"/>
    <path d="M247.54 175.954H103.026c-4.413 0-7.77-3.613-7.452-8.036l7.647-106.75c.318-4.416 4.189-8.035 8.602-8.035h144.514c4.414 0 7.771 3.613 7.452 8.036l-7.646 106.749c-.313 4.417-4.189 8.036-8.603 8.036z" fill="#263238"/>
    <path d="m263.436 62.223-4.393 61.233.565.041L264 62.264l-.564-.041zM258.667 128.778l-1.52 21.206.565.04 1.519-21.206-.564-.04zM247.234 173.952H103.616c-3.44 0-6.048-2.816-5.8-6.252l7.617-106.313c.248-3.442 3.263-6.253 6.697-6.253h143.617c3.44 0 6.048 2.817 5.8 6.253L253.93 167.7c-.248 3.442-3.257 6.252-6.696 6.252z" fill="#fff"/>
    <path opacity=".2" d="M247.234 173.952H103.616c-3.44 0-6.048-2.816-5.8-6.252l7.617-106.313c.248-3.442 3.263-6.253 6.697-6.253h143.617c3.44 0 6.048 2.817 5.8 6.253L253.93 167.7c-.248 3.442-3.257 6.252-6.696 6.252z" fill="#223354"/>
    <path opacity=".5" d="M140.455 169.241h-33.541c-1.658 0-2.921-1.358-2.803-3.023l7.405-103.355c.118-1.659 1.575-3.023 3.233-3.023h33.541c1.658 0 2.921 1.358 2.803 3.023l-7.405 103.355c-.112 1.665-1.569 3.023-3.233 3.023z" fill="#fff"/>
    <path opacity=".4" d="M139.157 74.418H121.8c-1.499 0-2.632-1.222-2.526-2.722l.189-2.663c.106-1.5 1.416-2.722 2.915-2.722h17.358c1.498 0 2.631 1.222 2.525 2.722l-.189 2.663c-.106 1.494-1.416 2.722-2.915 2.722z" fill="#223354"/>
    <path d="M128.119 116.226h-26.503c-2.608 0-4.59-2.137-4.407-4.747l1.9-26.522c.188-2.61 2.477-4.747 5.085-4.747h26.503c2.608 0 4.59 2.137 4.407 4.747l-1.9 26.522c-.183 2.61-2.472 4.747-5.085 4.747z" fill="#223354"/>
    <path d="M131.918 94.48c-.997 0-1.864.815-1.935 1.807l-.277 3.85a1.663 1.663 0 0 0 1.681 1.807h2.691c.247 0 .46-.201.478-.449l.472-6.572a.415.415 0 0 0-.419-.448h-2.691v.006zM121.693 86.953h-16.702a.665.665 0 0 1-.673-.727.793.793 0 0 1 .779-.726H121.8c.401 0 .702.325.672.727a.793.793 0 0 1-.779.726zM121.434 90.649h-16.709a.666.666 0 0 1-.673-.727.794.794 0 0 1 .779-.726h16.703c.401 0 .702.325.673.727a.793.793 0 0 1-.773.726zM115.392 94.345H104.46a.666.666 0 0 1-.673-.726.794.794 0 0 1 .779-.727h10.933c.401 0 .702.325.672.727a.797.797 0 0 1-.779.726z" fill="#fff"/>
    <path opacity=".5" d="M121.741 111.94h-16.16c-1.705 0-3.003-1.4-2.879-3.106l.607-8.496c.124-1.707 1.617-3.106 3.322-3.106h16.16c1.705 0 3.003 1.4 2.879 3.106l-.607 8.496c-.124 1.706-1.617 3.106-3.322 3.106z" fill="#fff"/>
    <path opacity=".4" d="M136.827 126.157H116.72a1.243 1.243 0 0 1-1.251-1.346c.053-.738.702-1.346 1.439-1.346h20.108c.737 0 1.303.608 1.25 1.346-.053.738-.702 1.346-1.439 1.346z" fill="#223354"/>
    <path opacity=".8" d="M132.774 131.436h-12.762a1.244 1.244 0 0 1-1.251-1.347c.053-.738.702-1.346 1.44-1.346h12.762c.737 0 1.303.608 1.25 1.346a1.467 1.467 0 0 1-1.439 1.347z" fill="#fff"/>
    <path opacity=".4" d="M135.783 140.735h-20.107a1.243 1.243 0 0 1-1.251-1.346c.053-.738.702-1.346 1.439-1.346h20.108c.737 0 1.304.608 1.25 1.346-.053.738-.696 1.346-1.439 1.346z" fill="#223354"/>
    <path opacity=".8" d="M131.729 146.013h-12.761a1.243 1.243 0 0 1-1.251-1.346c.053-.738.702-1.346 1.439-1.346h12.762c.738 0 1.304.608 1.251 1.346a1.462 1.462 0 0 1-1.44 1.346z" fill="#fff"/>
    <path opacity=".4" d="M134.738 155.307h-20.107a1.244 1.244 0 0 1-1.251-1.346c.054-.738.703-1.347 1.44-1.347h20.107c.738 0 1.304.609 1.251 1.347a1.467 1.467 0 0 1-1.44 1.346z" fill="#223354"/>
    <path opacity=".8" d="M130.685 160.591h-12.762a1.244 1.244 0 0 1-1.251-1.346c.053-.738.702-1.346 1.44-1.346h12.762c.737 0 1.304.608 1.25 1.346a1.466 1.466 0 0 1-1.439 1.346z" fill="#fff"/>
    <path opacity=".5" d="M248.791 138.934c.874-1.328 2.868-.768 2.761.773l-1.935 27.013c-.1 1.393-1.15 2.521-2.342 2.521h-97.256c-1.191 0-2.082-1.134-1.982-2.521l1.15-16.048c.154-2.167 2.355-3.726 4.378-3.094 5.481 1.712 10.178.708 14.544-1.458 9.334-4.641 17.145-14.59 27.877-14.59.413 0 .815.012 1.21.035 15.965.963 20.827 20.807 33.199 20.807 3.658 0 6.992-1.576 9.9-3.832 3.564-2.751 6.473-6.512 8.496-9.606z" fill="#223354"/>
    <path opacity=".5" d="m250.809 150.064-1.192 16.656c-.1 1.393-1.15 2.521-2.342 2.521h-97.256c-1.191 0-2.082-1.134-1.982-2.521l2.372-33.1c.165-2.267 3.133-3.218 4.33-1.387 3.104 4.735 7.877 10.858 13.37 13.881 2.106 1.157 4.307 1.86 6.567 1.86 7.858 0 14.543-9.329 22.52-16.414 4.897-4.346 10.278-7.853 16.709-7.853 13.434 0 15.416 21.846 26.384 24.833 2.113.579 4.561.455 7.488-.667 1.581-.596 3.15.549 3.032 2.191z" fill="#223354"/>
    <g opacity=".8" fill="#fff">
        <path opacity=".8" d="M251.287 143.61a.217.217 0 0 1-.142-.059.153.153 0 0 1-.041-.065.176.176 0 0 1-.018-.076c0-.06.024-.107.059-.142a.198.198 0 0 1 .284 0 .183.183 0 0 1 .059.142.334.334 0 0 1-.012.076.264.264 0 0 1-.047.065.206.206 0 0 1-.142.059zM156.727 157.444a.198.198 0 1 1 0-.396v-.005a.204.204 0 0 1 0 .407v-.006zm-2.023-.112a.196.196 0 0 1-.177-.219.2.2 0 0 1 .224-.177.199.199 0 0 1 .177.219.204.204 0 0 1-.201.183c-.006 0-.011 0-.023-.006zm3.817-.177a.201.201 0 0 1 .177-.225.201.201 0 0 1 .224.178.2.2 0 0 1-.177.224h-.023a.204.204 0 0 1-.201-.177zm-5.811-.13a.213.213 0 0 1-.16-.242.214.214 0 0 1 .242-.16c.106.024.177.13.159.242a.207.207 0 0 1-.2.16h-.041zm7.782-.201a.2.2 0 0 1 .147-.248.206.206 0 0 1 .242.148c.03.106-.041.218-.147.248v-.006c-.018.006-.036.006-.048.006-.094 0-.177-.059-.194-.148zm64.528.083a.2.2 0 0 1-.201-.201c0-.112.095-.201.201-.201a.2.2 0 0 1 .201.201.2.2 0 0 1-.201.201zm1.799-.284c-.011-.112.071-.212.177-.218a.197.197 0 0 1 .225.177.205.205 0 0 1-.183.224h-.018a.204.204 0 0 1-.201-.183zm-3.817.16a.197.197 0 0 1-.171-.225.2.2 0 0 1 .224-.177.208.208 0 0 1 .177.225c-.017.106-.1.183-.2.183-.012 0-.018 0-.03-.006zm-72.251-.242a.205.205 0 0 1-.142-.248.21.21 0 0 1 .254-.142.207.207 0 0 1 .136.254.199.199 0 0 1-.195.142c-.018 0-.036 0-.053-.006zm78.051-.195a.194.194 0 0 1 .159-.236.2.2 0 0 1 .236.159.2.2 0 0 1-.159.236c-.012 0-.024.006-.036.006a.208.208 0 0 1-.2-.165zm-7.782.071a.193.193 0 0 1-.148-.242.2.2 0 0 1 .242-.148.204.204 0 0 1 .148.242.202.202 0 0 1-.195.154c-.018 0-.035 0-.047-.006zm-58.617-.166a.196.196 0 0 1 .118-.259.201.201 0 0 1 .26.112c.035.106-.012.224-.118.26a.168.168 0 0 1-.071.017.205.205 0 0 1-.189-.13zm68.352-.348a.202.202 0 1 1 .248.136.175.175 0 0 1-.054.012.2.2 0 0 1-.194-.148zm-11.67-.071a.199.199 0 0 1-.124-.254.206.206 0 0 1 .259-.124c.106.042.16.154.124.26a.203.203 0 0 1-.195.13c-.023 0-.047 0-.064-.012zm-54.847-.378c-.053-.094-.012-.218.089-.271a.206.206 0 0 1 .271.094.198.198 0 0 1-.088.266.173.173 0 0 1-.095.024.201.201 0 0 1-.177-.113zm68.434-.141a.195.195 0 0 1 .118-.254l.006-.006c.1-.036.218.023.254.124a.205.205 0 0 1-.124.26c-.024.006-.041.011-.065.011a.203.203 0 0 1-.189-.135zm-15.452-.248c-.1-.042-.147-.166-.1-.266.047-.1.165-.142.265-.1a.2.2 0 0 1 .101.271.21.21 0 0 1-.183.118.14.14 0 0 1-.083-.023zm17.323-.461a.197.197 0 0 1 .112-.26.19.19 0 0 1 .259.107c.047.1 0 .218-.106.265a.173.173 0 0 1-.077.012.204.204 0 0 1-.188-.124zm-68.558-.118a.208.208 0 0 1 .064-.283.201.201 0 1 1 .213.342.175.175 0 0 1-.106.035.212.212 0 0 1-.171-.094zm49.436-.325a.203.203 0 0 1-.083-.277.207.207 0 0 1 .277-.077.2.2 0 0 1 .077.272.205.205 0 0 1-.177.106.272.272 0 0 1-.094-.024zm20.956-.366a.198.198 0 0 1 .095-.265.204.204 0 0 1 .271.094c.047.1 0 .218-.1.266l.006.006a.255.255 0 0 1-.089.017.199.199 0 0 1-.183-.118zm-68.729-.419a.205.205 0 0 1 .048-.283.204.204 0 0 1 .283.041.206.206 0 0 1-.047.283.22.22 0 0 1-.118.042.21.21 0 0 1-.166-.083zm46.032-.224a.202.202 0 0 1-.065-.278c.053-.1.177-.13.272-.071.1.059.129.183.07.278a.204.204 0 0 1-.171.1.23.23 0 0 1-.106-.029zm24.491-.254a.199.199 0 0 1 .083-.272c.094-.053.218-.012.271.083.053.1.018.218-.083.277a.266.266 0 0 1-.094.024.2.2 0 0 1-.177-.112zm-68.918-.732a.199.199 0 0 1 .03-.284.203.203 0 0 1 .283.03.21.21 0 0 1-.03.289.206.206 0 0 1-.129.041.181.181 0 0 1-.154-.076zm42.728-.089a.208.208 0 0 1-.059-.283.207.207 0 0 1 .283-.059.206.206 0 0 1 .059.277.199.199 0 0 1-.171.095.24.24 0 0 1-.112-.03zm27.942-.148a.202.202 0 0 1 .071-.277.208.208 0 0 1 .277.071.207.207 0 0 1-.07.277.24.24 0 0 1-.107.03.2.2 0 0 1-.171-.101zm-29.612-.968a.207.207 0 0 1-.053-.283.212.212 0 0 1 .283-.053.212.212 0 0 1 .053.283.207.207 0 0 1-.171.089.208.208 0 0 1-.112-.036zm31.323-.071a.21.21 0 0 1 .065-.283.201.201 0 1 1 .213.342.165.165 0 0 1-.107.036.216.216 0 0 1-.171-.095zm-70.829.012a.204.204 0 0 1 .023-.283.212.212 0 0 1 .29.023.2.2 0 0 1-.03.284.18.18 0 0 1-.13.047.208.208 0 0 1-.153-.071zm72.511-1.11a.205.205 0 0 1 .047-.283.2.2 0 0 1 .283.053c.059.088.042.218-.053.277a.198.198 0 0 1-.277-.047zm-34.663.047a.195.195 0 0 1-.053-.277.2.2 0 1 1 .331.224.192.192 0 0 1-.166.089.208.208 0 0 1-.112-.036zm-36.308-.224a.193.193 0 0 1 .023-.283.205.205 0 0 1 .284.023.205.205 0 0 1-.024.284.189.189 0 0 1-.13.047.19.19 0 0 1-.153-.071zm34.645-.886c-.095-.065-.124-.189-.059-.277a.195.195 0 0 1 .277-.059.2.2 0 0 1 .059.277.19.19 0 0 1-.165.089.184.184 0 0 1-.112-.03zm37.966-.094a.194.194 0 0 1 .041-.278.205.205 0 0 1 .284.042.207.207 0 0 1-.048.283.208.208 0 0 1-.118.036.18.18 0 0 1-.159-.083zm-71.071-.301a.2.2 0 0 1 .029-.284.203.203 0 0 1 .283.03c.071.088.059.218-.029.283a.176.176 0 0 1-.13.047.194.194 0 0 1-.153-.076zm31.423-.685a.201.201 0 1 1 .277-.065.204.204 0 0 1-.171.1.182.182 0 0 1-.106-.035zm41.253-.213a.199.199 0 0 1 .035-.283.2.2 0 0 1 .283.035.211.211 0 0 1-.035.284h-.006a.183.183 0 0 1-.118.041.195.195 0 0 1-.159-.077zm-71.107-.342a.206.206 0 0 1 .041-.284.206.206 0 0 1 .284.042.206.206 0 0 1-.042.283.213.213 0 0 1-.118.041.206.206 0 0 1-.165-.082zm28.137-.467a.2.2 0 0 1-.071-.277.195.195 0 0 1 .272-.071c.1.053.135.177.076.272a.205.205 0 0 1-.177.106.24.24 0 0 1-.1-.03zm44.533-.442a.2.2 0 0 1 .03-.284.198.198 0 0 1 .283.03.203.203 0 0 1-.024.283.228.228 0 0 1-.129.047.2.2 0 0 1-.16-.076zm-71.042-.26a.203.203 0 0 1 .054-.284.208.208 0 0 1 .283.059.202.202 0 0 1-.059.278.193.193 0 0 1-.112.035.206.206 0 0 1-.166-.088zm24.757-.248a.2.2 0 0 1-.083-.272c.047-.1.171-.136.272-.088a.217.217 0 0 1 .088.277.215.215 0 0 1-.183.106.182.182 0 0 1-.094-.023zm47.819-.785a.205.205 0 0 1 .018-.284h.006a.203.203 0 0 1 .283.018.204.204 0 0 1-.023.283.182.182 0 0 1-.13.053.2.2 0 0 1-.154-.07zm-70.882-.036c-.059-.094-.024-.218.076-.277a.202.202 0 0 1 .272.076.205.205 0 0 1-.077.278h.006a.219.219 0 0 1-.1.023.2.2 0 0 1-.177-.1zm21.269-.035c-.1-.048-.147-.166-.1-.266a.198.198 0 0 1 .265-.1.196.196 0 0 1 .101.265.202.202 0 0 1-.266.101zm-1.841-.75a.197.197 0 0 1-.118-.26c.036-.1.154-.153.26-.118a.21.21 0 0 1 .118.26.197.197 0 0 1-.189.13c-.023 0-.047 0-.071-.012zm-17.658-.142c-.042-.1 0-.224.1-.266a.203.203 0 0 1 .271.101.204.204 0 0 1-.188.283.197.197 0 0 1-.183-.118zm15.77-.478a.206.206 0 0 1-.135-.254c.029-.106.147-.165.253-.136.107.03.166.142.136.254a.209.209 0 0 1-.195.142c-.017 0-.035 0-.059-.006zm-13.918-.278a.202.202 0 1 1 .254.13.21.21 0 0 1-.065.012.2.2 0 0 1-.189-.142zm11.995-.212a.2.2 0 0 1-.153-.236.195.195 0 0 1 .242-.154.195.195 0 0 1 .153.236.203.203 0 0 1-.201.16c-.011 0-.023 0-.041-.006zm-10.077-.337a.203.203 0 0 1 .159-.242.2.2 0 0 1 .236.154.2.2 0 0 1-.153.242c-.012 0-.03.006-.042.006a.207.207 0 0 1-.2-.16zm8.124-.006a.205.205 0 0 1-.171-.23.195.195 0 0 1 .224-.171h.006c.106.012.183.118.171.23a.207.207 0 0 1-.2.171h-.03zm-6.154-.336a.2.2 0 0 1 .177-.219.198.198 0 0 1 .225.178c.011.112-.071.206-.183.224h-.018a.205.205 0 0 1-.201-.183zm4.178.13h.006a.196.196 0 0 1-.189-.213.2.2 0 0 1 .212-.189.206.206 0 0 1 .189.219.2.2 0 0 1-.201.189c-.006 0-.011-.006-.017-.006zm-2.183-.26a.195.195 0 0 1 .2-.201c.106-.006.201.089.201.201a.2.2 0 0 1-.201.201.199.199 0 0 1-.2-.201zM148.828 155.909a.177.177 0 0 1-.077-.018c-.024-.012-.047-.023-.065-.047-.018-.018-.035-.035-.041-.065a.162.162 0 0 1-.018-.077c0-.053.024-.1.059-.141a.152.152 0 0 1 .065-.042.178.178 0 0 1 .153 0c.03.006.047.024.065.042a.191.191 0 0 1 .059.141c0 .03 0 .053-.012.077a.125.125 0 0 1-.047.065c-.018.024-.041.035-.065.047a.158.158 0 0 1-.076.018z"/>
    </g>
    <path d="m181.178 95.443-1.381-1.488c-2.442 2.285-5.699 3.696-9.18 3.696-5.835 0-10.461-3.967-11.511-9.352l-2.065.543-1.888.496c.554 2.822 1.852 5.397 3.77 7.457 5.988 6.454 16.603 6.454 23.517 0l-1.262-1.352z" fill="#fff"/>
    <path d="m184.122 73.266-1.806 1.683-1.245 1.163c2.118 2.28 3.31 5.438 3.056 8.922-.247 3.483-1.888 6.642-4.33 8.927l1.08 1.163 1.557 1.677c3.34-3.123 5.399-7.35 5.711-11.767.325-4.405-1.127-8.644-4.023-11.768z" fill="#263238"/>
    <path d="M184.122 73.266c-5.989-6.453-16.603-6.453-23.518 0-4.496 4.198-6.578 10.339-5.457 16.072l2.336-.614 1.617-.425a12.404 12.404 0 0 1-.189-3.265c.501-6.967 6.549-12.618 13.511-12.618 3.481 0 6.531 1.411 8.649 3.696l1.593-1.488 1.458-1.358z" fill="#223354"/>
    <path d="m201.072 95.443 1.593-1.488c-2.118-2.285-3.304-5.438-3.05-8.927.419-5.84 4.732-10.752 10.219-12.193l-.395-2.03-.366-1.855c-2.873.756-5.552 2.244-7.765 4.305-6.914 6.453-7.675 17.075-1.687 23.534l1.451-1.346z" fill="#fff"/>
    <path d="m223.133 96.8-1.564-1.682-1.08-1.163c-2.442 2.285-5.693 3.696-9.18 3.696-3.481 0-6.537-1.411-8.655-3.696l-1.245 1.163-1.8 1.677c2.897 3.123 6.998 4.877 11.411 4.877 4.413.006 8.773-1.748 12.113-4.871z" fill="#263238"/>
    <path d="M223.133 96.801c6.908-6.453 7.67-17.075 1.687-23.535-3.894-4.198-9.912-5.839-15.753-4.304l.448 2.291.313 1.588a13.04 13.04 0 0 1 3.292-.425c6.962 0 12.201 5.65 11.7 12.618-.248 3.483-1.888 6.636-4.331 8.921l1.381 1.488 1.263 1.358z" fill="#223354"/>
    <path opacity=".3" d="M250.998 69.877c.336 0 .643.13.867.367.224.236.331.555.307.897l-.732 10.185c-.053.726-.708 1.34-1.433 1.34h-10.178a1.18 1.18 0 0 1-.867-.366 1.168 1.168 0 0 1-.307-.897l.732-10.185c.053-.727.708-1.34 1.433-1.34h10.178zm0-.52H240.82c-1.003 0-1.882.822-1.952 1.825l-.732 10.185a1.68 1.68 0 0 0 1.693 1.825h10.178c1.003 0 1.882-.821 1.953-1.825l.731-10.185a1.68 1.68 0 0 0-1.693-1.824zM249.741 87.401c.336 0 .643.13.867.367.225.236.331.555.307.897l-.731 10.185c-.053.726-.708 1.34-1.434 1.34h-10.178a1.18 1.18 0 0 1-.867-.366 1.169 1.169 0 0 1-.307-.897l.732-10.185c.053-.727.708-1.34 1.434-1.34h10.177zm0-.52h-10.177c-1.003 0-1.883.822-1.953 1.825l-.732 10.185a1.68 1.68 0 0 0 1.693 1.825h10.178c1.003 0 1.882-.821 1.953-1.825l.731-10.185a1.68 1.68 0 0 0-1.693-1.824z" fill="#223354"/>
    <path d="M234.844 143.758c.283 0 .543.112.732.307a.99.99 0 0 1 .253.756c-.047.626-.59 1.139-1.215 1.139-.283 0-.543-.112-.732-.307a.985.985 0 0 1-.253-.756 1.24 1.24 0 0 1 1.215-1.139zm0-.526c-.897 0-1.67.727-1.735 1.624a1.488 1.488 0 0 0 1.505 1.624c.897 0 1.67-.726 1.734-1.624a1.488 1.488 0 0 0-1.504-1.624z" fill="#223354"/>
    <path d="m234.973 143.244-.259-.017.041-.52.26.018-.042.519zM235.086 141.656l-.26-.018.077-1.068.259.017-.076 1.069zm.153-2.131-.259-.018.076-1.069.26.018-.077 1.069zm.154-2.132-.26-.018.077-1.068.259.017-.076 1.069zm.153-2.131-.26-.018.077-1.069.26.018-.077 1.069zm.153-2.132-.259-.018.076-1.068.26.018-.077 1.068zm.154-2.137-.26-.018.077-1.069.259.018-.076 1.069zm.153-2.132-.259-.017.076-1.069.26.018-.077 1.068zm.154-2.131-.26-.018.077-1.068.259.017-.076 1.069zm.153-2.132-.26-.017.077-1.069.26.018-.077 1.068zm.147-2.131-.259-.018.077-1.068.259.017-.077 1.069zm.154-2.137-.26-.018.077-1.069.26.018-.077 1.069zM236.543 117.659l-.037.519.259.018.037-.518-.259-.019z" fill="#223354"/>
    <path d="M247.67 117.956h-93.42a1.845 1.845 0 0 1-1.363-.584 1.827 1.827 0 0 1-.484-1.406l.46-6.435c.077-1.075 1.015-1.955 2.089-1.955h93.426c.525 0 1.009.207 1.363.585.354.378.525.88.49 1.405l-.46 6.436c-.083 1.074-1.021 1.954-2.101 1.954zm-92.718-9.819c-.785 0-1.469.638-1.528 1.429l-.46 6.436c-.024.372.094.72.336.98.242.26.578.407.95.407h93.426c.785 0 1.469-.637 1.528-1.428l.461-6.436a1.3 1.3 0 0 0-.337-.98 1.277 1.277 0 0 0-.95-.402h-93.426v-.006z" fill="#223354"/>
    <path opacity=".8" fill-rule="evenodd" clip-rule="evenodd" d="M245.664 111.721h-88.559a.806.806 0 0 1-.814-.874.953.953 0 0 1 .938-.873h88.559c.484 0 .85.395.814.873a.95.95 0 0 1-.938.874zM230.909 115.417H156.84a.805.805 0 0 1-.814-.874.953.953 0 0 1 .938-.873h74.068c.484 0 .85.395.815.873a.964.964 0 0 1-.938.874z" fill="#fff"/>
</svg>
