<svg width="92" height="40" viewBox="0 0 92 40" fill="none" xmlns="http://www.w3.org/2000/svg">
    <g clip-path="url(#it7d47ru6a)">
        <path fill-rule="evenodd" clip-rule="evenodd" d="m22.786.179 49.589.107h.027l.053-.01h.045l.027-.008H72.607l.027-.01h.045l.026-.008h.107l.027-.009h.072l.026-.009h.108l.017-.009h.161l.027-.009h.152l.027-.009h.267l.08-.009H74.358l.08.01h.215l.027.008H74.848l.027.01h.134l.027.008h.107l.027.01h.08l.054.008h.053l.027.009h.08l.027.009h.018l.053.009h.054l.027.009h.053l.027.009h.161l-.009.009c.652.062 1.286.151 1.91.276h.01l.089.018h.018c.071.018.134.027.196.045l.107.027.108.017h.008l.08.018.045.01c.17.044.33.07.492.115l.026.01.08.026.197.027h.009l.098.027h.01l.07.017.054.018.063.018.044.01.072.017.107.027.018.009.026.009.08.018.063.017.045.018.063.018.07.018.055.018.098.027.009.008.062.018.054.018.053.018.072.027.044.018.063.018.098.035.072.027.044.018.072.027.044.018.072.017.044.018h.01l.106.045h.01l.089.045h.017l.054.017.071.036.036.018.08.036.027.009.018.009.107.044.018.01.08.035.018.009.054.027.071.026.045.018.018.01.098.044h.009l.107.053.018.01.08.044.063.027.053.018.045.026.116.045c2.67 1.277 4.991 3.071 6.964 5.402l-8.258 5.464c-1.01-1-2.117-1.768-3.33-2.295a9.462 9.462 0 0 0-3.867-.803c-1.42 0-2.741.286-3.964.848A10.253 10.253 0 0 0 67 12.991l-.045.045-.044.044-.045.045-.045.045-.044.044-.045.045-.036.045-.035.044-.045.045-.045.044-.035.045-.045.045-.045.044-.035.045-.045.045-.036.044-.035.045-.045.045-.036.044-.035.045-.036.045-.045.044-.035.045-.036.044-.036.045-.036.045-.035.053-.036.045-.036.045-.027.053-.035.045-.036.044-.036.054-.026.045-.036.053-.036.045-.027.053-.035.045-.027.054-.027.053-.036.045-.026.053.008.152-.026.045-.027.053-.027.054-.027.054-.026.053-.027.054-.027.053-.027.054-.027.053-.026.054-.027.054-.027.053-.027.054-.018.053-.026.063-.027.053-.018.054-.027.063-.018.053-.026.054-.018.062-.027.054-.018.062-.054.08-.017.063-.027.054-.018.062-.018.054-.018.062-.018.054-.017.062-.018.063-.027.062-.018.063-.018.062-.018.054-.018.062-.017.063-.01.053-.017.063-.018.062-.009.063-.018.053-.018.063-.018.063-.008.062-.018.063-.01.053-.008.063-.018.062-.018.063-.009.062-.009.063-.018.062-.009.063-.017.062-.018.063-.01.062-.008.063-.018.062-.009.063-.009.062-.018.063-.009.062-.009.063-.008.062-.01.072-.008.062-.01.063v.062l-.008.063-.01.07-.008.063v.063l-.009.062v.072l-.009.062v.125l-.009.072v.33c0 1.384.25 2.706.75 3.964a10.058 10.058 0 0 0 2.107 3.295c.911.929 1.965 1.679 3.179 2.25a9.347 9.347 0 0 0 3.964.848c1.518 0 2.964-.339 4.348-1.018a9.689 9.689 0 0 0 3.474-2.857h-6.652v-9.08h16.562V38.83h-8.598v-1.062l-.134.062-.009.01-.125.053-.018.009-.116.053-.009.01-.062.026-.072.045-.044.018-.08.044-.054.018-.08.045-.063.026-.063.027-.07.036-.072.036-.054.018-.08.035-.054.027-.071.036-.063.018-.062.026-.08.036-.045.018-.08.036-.063.018-.072.026-.089.036-.044.018-.117.045-.017.008-.072.027-.071.027c-.045.018-.09.036-.134.045l-.134.044-.08.027-.054.018-.018.009-.116.045h-.009l-.071.026-.063.018-.09.027-.044.018-.09.027-.053.017-.08.018-.045.018-.107.036-.035.009-.08.027-.072.017-.072.018-.071.018-.072.018-.062.018-.08.027-.045.009-.09.026-.053.01-.08.017-.063.018-.071.018-.045.018-.24.053c-.046.01-.09.018-.144.027-.08.018-.17.045-.259.063h-.018l-.41.08c-.045.009-.09.009-.143.027h-.01l-.124.018h-.018l-.125.017-.009.01-.134.017h-.009l-.134.018h-.017l-.126.018h-.008c-.045.009-.09.018-.143.018l-.134.018h.044c-.553.071-1.107.116-1.67.143h-.017a6.343 6.343 0 0 1-.42.017l.018.01-53.321-.161a27.1 27.1 0 0 1-1.215.035c-2.785 0-5.392-.517-7.821-1.562-2.429-1.036-4.554-2.447-6.366-4.25-1.813-1.804-3.241-3.91-4.295-6.34C.527 25.305 0 22.715 0 19.965s.527-5.348 1.58-7.768c1.054-2.428 2.482-4.544 4.295-6.339C7.696 4.054 9.821 2.634 12.25 1.58 14.679.527 17.286 0 20.071 0c.92 0 1.83.063 2.715.179zm30.446 38.044H28.098c2.348-1.027 4.402-2.41 6.16-4.152 1.813-1.803 3.242-3.91 4.296-6.339 1.053-2.428 1.58-5.018 1.58-7.768s-.527-5.348-1.58-7.768C37.5 9.768 36.07 7.652 34.259 5.857c-1.813-1.803-3.947-3.223-6.393-4.277-.053-.018-.107-.044-.17-.071h23.92c.697 0 1.41.08 2.16.259.742.178 1.465.428 2.17.759.715.33 1.375.714 1.992 1.16a8.346 8.346 0 0 1 1.589 1.465c.794.946 1.402 2 1.821 3.17.429 1.17.643 2.366.643 3.589 0 1.42-.286 2.785-.848 4.098a10.123 10.123 0 0 1-2.464 3.428c.687.438 1.33.983 1.92 1.608.58.634 1.08 1.321 1.49 2.08.411.759.732 1.563.965 2.393.24.84.357 1.652.357 2.437 0 1.384-.26 2.706-.777 3.956a10.128 10.128 0 0 1-2.179 3.268 10.91 10.91 0 0 1-3.24 2.223 9.722 9.722 0 0 1-3.983.821zm-4.59-29.34h-6.58v7.474h6.58c1.019 0 1.885-.375 2.626-1.107.74-.741 1.107-1.616 1.107-2.625S52 10.741 51.268 10c-.741-.741-1.616-1.116-2.625-1.116zm.331 14.153h-6.91v7.428h6.91c1.045 0 1.929-.366 2.652-1.089.732-.723 1.09-1.607 1.09-2.652 0-1.009-.358-1.875-1.09-2.607-.732-.723-1.616-1.08-2.652-1.08zM78 .589c.071.018.134.027.196.045L78 .589zm.875 38.83c-.08.019-.16.036-.241.054l.241-.053zM20.071 9.617H19.68h.053l-.018.009h-.081.01-.089l-.018.009h-.107l-.027.009h-.107l-.018.009h-.036.045H19.268a9.037 9.037 0 0 0-3.16.821 9.992 9.992 0 0 0-3.135 2.26 10.752 10.752 0 0 0-2.071 3.285c-.5 1.25-.75 2.562-.75 3.955 0 1.357.259 2.67.75 3.929a10.367 10.367 0 0 0 2.071 3.303c.866.947 1.92 1.697 3.134 2.26a9.08 9.08 0 0 0 2.107.678l.027.009.027.009.027.009.053.009h.01c.035.009.07.017.106.017l.027.01h.027l.027.008H18.572l.026.01h.01l.026.008h.027l.026.01H18.715l.036-.019h.036l.026.01h.036l.027.008H18.902l.027.009h.036l.017.009h.045l.018.009h.044l.018.009h.063l.026.009h.054l.027.009h.062l.018.009h.08l.027.009H19.58l.027.008h.17l.027.01H20.098c1.429 0 2.75-.286 3.965-.849a9.99 9.99 0 0 0 3.133-2.259c.875-.937 1.563-2.035 2.072-3.303.5-1.26.75-2.572.75-3.929 0-1.393-.26-2.714-.75-3.955-.5-1.25-1.197-2.34-2.072-3.286-.866-.938-1.92-1.688-3.134-2.259-1.25-.59-2.562-.875-3.99-.875z" fill="#223354"/>
    </g>
    <defs>
        <clipPath id="it7d47ru6a">
            <path fill="#fff" d="M0 0h91.884v40H0z"/>
        </clipPath>
    </defs>
</svg>
