<svg width="24" height="24" viewBox="0 0 24 24" fill="none" xmlns="http://www.w3.org/2000/svg">
    <path fill="#fff" d="M0 0h24v24H0z"/>
    <rect x="2" y="2" width="20" height="20" rx="2" fill="#333" stroke="#333" stroke-width="2"/>
    <path d="M6.09 11.067 3.513 13.93A2 2 0 0 0 3 15.268V19a2 2 0 0 0 2 2h14a2 2 0 0 0 2-2v-8.164a2 2 0 0 0-.595-1.423l-1.67-1.65a2 2 0 0 0-3.105.371l-2.301 3.718a2 2 0 0 1-3.115.362l-1.223-1.223a2 2 0 0 0-2.901.076z" fill="#fff"/>
    <circle cx="6" cy="6" r="2" fill="#fff"/>
</svg>
